<svg width="42" height="8" fill="none" xmlns="http://www.w3.org/2000/svg"><path d="M1.486 4.043v2.105H.502V.483h2.167c.632 0 1.134.165 1.505.495.374.329.56.765.56 1.307 0 .555-.183.986-.548 1.295-.363.309-.873.463-1.529.463H1.486zm0-.79h1.183c.35 0 .617-.081.801-.245.184-.166.276-.404.276-.716 0-.306-.093-.55-.28-.73-.187-.185-.443-.28-.77-.285h-1.21v1.976zm3.63.751c0-.412.081-.783.245-1.112.163-.332.393-.587.688-.763a1.93 1.93 0 0 1 1.02-.268c.568 0 1.028.182 1.38.548.356.366.548.85.576 1.455l.004.222c0 .415-.08.786-.24 1.112-.16.327-.387.58-.686.759a1.944 1.944 0 0 1-1.027.268c-.593 0-1.07-.197-1.427-.59-.356-.398-.533-.925-.533-1.584v-.047zm.945.082c0 .433.09.773.268 1.02a.874.874 0 0 0 .747.365.858.858 0 0 0 .743-.374c.18-.249.269-.613.269-1.093 0-.425-.092-.762-.276-1.011a.87.87 0 0 0-.743-.374.866.866 0 0 0-.736.37c-.181.244-.272.61-.272 1.097zm7.306.758l.67-2.906h.921l-1.147 4.21h-.778l-.903-2.89-.887 2.89h-.778l-1.152-4.21h.922l.681 2.875.864-2.875h.712l.875 2.906zm3.918 1.381c-.6 0-1.086-.188-1.46-.564-.37-.378-.555-.881-.555-1.509v-.117c0-.42.08-.795.24-1.124.164-.332.392-.59.685-.774.293-.184.62-.276.98-.276.574 0 1.016.182 1.327.548.314.366.471.883.471 1.552v.382h-2.75c.028.347.144.622.346.824.205.203.462.304.77.304a1.28 1.28 0 0 0 1.058-.525l.51.486a1.714 1.714 0 0 1-.677.587c-.28.138-.595.206-.945.206zm-.113-3.606c-.26 0-.47.091-.63.273-.159.181-.26.434-.304.758h1.801v-.07c-.02-.316-.105-.555-.253-.716-.147-.163-.352-.245-.614-.245zm4.583.183a2.34 2.34 0 0 0-.385-.031c-.434 0-.725.166-.876.498v2.879h-.945v-4.21h.902l.024.471c.228-.366.544-.548.949-.548.135 0 .246.018.335.054l-.004.887zm2.213 3.423c-.599 0-1.085-.188-1.458-.564-.371-.378-.557-.881-.557-1.509v-.117c0-.42.08-.795.242-1.124a1.86 1.86 0 0 1 .684-.774c.293-.184.62-.276.98-.276.574 0 1.016.182 1.327.548.314.366.47.883.47 1.552v.382h-2.75c.029.347.144.622.347.824.204.203.461.304.77.304a1.28 1.28 0 0 0 1.058-.525l.51.486a1.714 1.714 0 0 1-.677.587c-.28.138-.596.206-.946.206zm-.112-3.606c-.26 0-.47.091-.63.273-.159.181-.26.434-.304.758h1.801v-.07c-.02-.316-.105-.555-.253-.716-.148-.163-.352-.245-.614-.245zm2.202 1.393c0-.648.15-1.168.45-1.56a1.447 1.447 0 0 1 1.21-.591c.447 0 .807.155 1.082.466V.172h.945v5.976h-.855l-.047-.436c-.283.342-.66.513-1.132.513-.493 0-.892-.198-1.198-.595-.304-.397-.455-.936-.455-1.618zm.945.082c0 .428.082.762.245 1.003.166.239.4.358.704.358a.89.89 0 0 0 .848-.517V3.14c-.174-.338-.454-.506-.84-.506a.806.806 0 0 0-.708.365c-.166.242-.25.606-.25 1.094zm9.088-.008c0 .653-.147 1.173-.44 1.56-.29.386-.691.58-1.202.58-.493 0-.877-.178-1.151-.534l-.047.456h-.856V.172h.945v2.171c.273-.322.64-.482 1.101-.482.514 0 .917.19 1.21.571.293.382.44.915.44 1.6v.054zm-.946-.082c0-.456-.08-.799-.24-1.027-.162-.228-.395-.342-.701-.342-.41 0-.698.179-.864.537v1.735c.169.365.46.548.872.548.295 0 .524-.11.684-.33.161-.22.244-.554.25-1v-.12zm3.008.79l.856-2.856h1.007l-1.673 4.848c-.256.708-.692 1.062-1.307 1.062-.137 0-.289-.024-.455-.07v-.732l.18.012c.238 0 .417-.044.536-.132.122-.086.218-.231.288-.436l.136-.362-1.478-4.19h1.019l.89 2.856zm2.82.358c.177 0 .313.05.409.151a.513.513 0 0 1 .144.374.508.508 0 0 1-.144.37c-.096.095-.232.143-.409.143a.55.55 0 0 1-.4-.144.493.493 0 0 1-.148-.37c0-.15.048-.274.144-.373.096-.1.23-.151.404-.151zm0-3.303c.177 0 .313.05.409.152a.513.513 0 0 1 .144.373.508.508 0 0 1-.144.37c-.096.096-.232.144-.409.144a.55.55 0 0 1-.4-.144.493.493 0 0 1-.148-.37c0-.15.048-.275.144-.373a.53.53 0 0 1 .404-.152z" fill="#858585"/></svg>