<svg width="42" height="8" viewBox="0 0 42 8" fill="none" xmlns="http://www.w3.org/2000/svg">
<path d="M1.48601 4.04303V6.14764H0.501779V0.483476H2.66863C3.30144 0.483476 3.80328 0.648162 4.17415 0.977535C4.54761 1.30691 4.73434 1.74261 4.73434 2.28465C4.73434 2.83966 4.5515 3.27147 4.18582 3.5801C3.82273 3.88872 3.31311 4.04303 2.65696 4.04303H1.48601ZM1.48601 3.25332H2.66863C3.01875 3.25332 3.28588 3.17162 3.47002 3.00823C3.65416 2.84225 3.74623 2.60365 3.74623 2.29243C3.74623 1.9864 3.65286 1.74261 3.46613 1.56107C3.2794 1.37693 3.02264 1.28227 2.69587 1.27708H1.48601V3.25332ZM5.11574 4.00413C5.11574 3.59177 5.19744 3.2209 5.36083 2.89153C5.52421 2.55956 5.75374 2.3054 6.0494 2.12904C6.34505 1.95009 6.6848 1.86062 7.06863 1.86062C7.63661 1.86062 8.09695 2.04346 8.44966 2.40914C8.80497 2.77482 8.99689 3.2598 9.02542 3.86408L9.02931 4.08582C9.02931 4.50078 8.94891 4.87165 8.78811 5.19843C8.62991 5.52521 8.40168 5.77807 8.10343 5.95702C7.80778 6.13597 7.46544 6.22545 7.07641 6.22545C6.48251 6.22545 6.0066 6.02834 5.6487 5.63413C5.29339 5.23733 5.11574 4.70956 5.11574 4.05081V4.00413ZM6.06107 4.08582C6.06107 4.51894 6.15054 4.85868 6.32949 5.10506C6.50844 5.34885 6.75742 5.47074 7.07641 5.47074C7.39541 5.47074 7.64309 5.34626 7.81945 5.09728C7.9984 4.84831 8.08787 4.48392 8.08787 4.00413C8.08787 3.5788 7.9958 3.24165 7.81167 2.99267C7.63012 2.7437 7.38245 2.61921 7.06863 2.61921C6.76001 2.61921 6.51493 2.7424 6.33338 2.98878C6.15184 3.23257 6.06107 3.59825 6.06107 4.08582ZM13.3671 4.84442L14.0362 1.93842H14.9582L13.8106 6.14764H13.0325L12.13 3.25721L11.243 6.14764H10.465L9.31345 1.93842H10.2354L10.9162 4.8133L11.7799 1.93842H12.4918L13.3671 4.84442ZM17.2847 6.22545C16.6856 6.22545 16.1993 6.03742 15.8258 5.66137C15.455 5.28272 15.2695 4.77958 15.2695 4.15196V4.03525C15.2695 3.61511 15.3499 3.24035 15.5107 2.91098C15.6741 2.57901 15.9024 2.32096 16.1954 2.13682C16.4885 1.95268 16.8153 1.86062 17.1758 1.86062C17.7489 1.86062 18.1911 2.04346 18.5023 2.40914C18.8161 2.77482 18.973 3.29222 18.973 3.96134V4.34258H16.2226C16.2512 4.69011 16.3666 4.96502 16.5689 5.16731C16.7738 5.3696 17.0305 5.47074 17.3391 5.47074C17.7723 5.47074 18.125 5.29568 18.3973 4.94556L18.9069 5.43184C18.7383 5.68341 18.5127 5.87922 18.23 6.01927C17.9499 6.15672 17.6348 6.22545 17.2847 6.22545ZM17.1719 2.61921C16.9125 2.61921 16.7024 2.70998 16.5416 2.89153C16.3834 3.07307 16.2823 3.32593 16.2382 3.65012H18.0394V3.5801C18.0186 3.26369 17.9343 3.02509 17.7865 2.86429C17.6387 2.7009 17.4338 2.61921 17.1719 2.61921ZM21.7547 2.80205C21.6302 2.7813 21.5018 2.77093 21.3696 2.77093C20.9365 2.77093 20.6447 2.93691 20.4943 3.26888V6.14764H19.5489V1.93842H20.4515L20.4748 2.40914C20.703 2.04346 21.0194 1.86062 21.424 1.86062C21.5589 1.86062 21.6704 1.87877 21.7586 1.91508L21.7547 2.80205ZM23.9684 6.22545C23.3693 6.22545 22.883 6.03742 22.5096 5.66137C22.1387 5.28272 21.9533 4.77958 21.9533 4.15196V4.03525C21.9533 3.61511 22.0337 3.24035 22.1945 2.91098C22.3578 2.57901 22.5861 2.32096 22.8791 2.13682C23.1722 1.95268 23.499 1.86062 23.8595 1.86062C24.4326 1.86062 24.8748 2.04346 25.186 2.40914C25.4998 2.77482 25.6568 3.29222 25.6568 3.96134V4.34258H22.9064C22.9349 4.69011 23.0503 4.96502 23.2526 5.16731C23.4575 5.3696 23.7142 5.47074 24.0229 5.47074C24.456 5.47074 24.8087 5.29568 25.081 4.94556L25.5906 5.43184C25.422 5.68341 25.1964 5.87922 24.9137 6.01927C24.6336 6.15672 24.3185 6.22545 23.9684 6.22545ZM23.8556 2.61921C23.5962 2.61921 23.3862 2.70998 23.2254 2.89153C23.0672 3.07307 22.966 3.32593 22.9219 3.65012H24.7231V3.5801C24.7024 3.26369 24.6181 3.02509 24.4702 2.86429C24.3224 2.7009 24.1175 2.61921 23.8556 2.61921ZM26.0576 4.01191C26.0576 3.36354 26.208 2.84355 26.5089 2.45193C26.8097 2.05772 27.213 1.86062 27.7187 1.86062C28.1648 1.86062 28.5253 2.01622 28.8002 2.32744V0.172258H29.7455V6.14764H28.8897L28.843 5.71194C28.5603 6.05428 28.183 6.22545 27.7109 6.22545C27.2182 6.22545 26.8188 6.02705 26.5128 5.63024C26.2093 5.23344 26.0576 4.694 26.0576 4.01191ZM27.0029 4.09361C27.0029 4.52153 27.0846 4.85609 27.248 5.09728C27.414 5.33588 27.6487 5.45518 27.9521 5.45518C28.3386 5.45518 28.6213 5.28272 28.8002 4.93778V3.1405C28.6264 2.80335 28.3464 2.63477 27.9599 2.63477C27.6539 2.63477 27.4179 2.75666 27.2519 3.00045C27.0859 3.24165 27.0029 3.60603 27.0029 4.09361ZM36.0908 4.08582C36.0908 4.73938 35.9443 5.25938 35.6512 5.6458C35.3607 6.03223 34.96 6.22545 34.4491 6.22545C33.9564 6.22545 33.5725 6.04779 33.2976 5.69249L33.2509 6.14764H32.3951V0.172258H33.3404V2.343C33.6127 2.02141 33.9797 1.86062 34.4413 1.86062C34.9549 1.86062 35.3581 2.05124 35.6512 2.43248C35.9443 2.81372 36.0908 3.34668 36.0908 4.03136V4.08582ZM35.1455 4.00413C35.1455 3.54768 35.0651 3.20534 34.9043 2.97711C34.7435 2.74888 34.5101 2.63477 34.204 2.63477C33.7943 2.63477 33.5064 2.81372 33.3404 3.17162V4.90666C33.509 5.27234 33.7995 5.45518 34.2118 5.45518C34.5075 5.45518 34.7357 5.34496 34.8965 5.12451C35.0573 4.90407 35.1403 4.57081 35.1455 4.12473V4.00413ZM38.1528 4.79385L39.0086 1.93842H40.0162L38.3434 6.78564C38.0866 7.49366 37.6509 7.84767 37.0363 7.84767C36.8988 7.84767 36.7471 7.82433 36.5811 7.77765V7.04629L36.7601 7.05796C36.9987 7.05796 37.1776 7.01387 37.2969 6.92569C37.4188 6.8401 37.5148 6.69487 37.5848 6.48998L37.721 6.12819L36.2427 1.93842H37.2619L38.1528 4.79385ZM40.9733 5.15175C41.1497 5.15175 41.2859 5.20232 41.3818 5.30347C41.4778 5.40202 41.5258 5.5265 41.5258 5.67693C41.5258 5.82476 41.4778 5.94795 41.3818 6.0465C41.2859 6.14246 41.1497 6.19044 40.9733 6.19044C40.8048 6.19044 40.6712 6.14246 40.5727 6.0465C40.4741 5.95054 40.4248 5.82735 40.4248 5.67693C40.4248 5.5265 40.4728 5.40202 40.5688 5.30347C40.6647 5.20232 40.7996 5.15175 40.9733 5.15175ZM40.9733 1.84895C41.1497 1.84895 41.2859 1.89952 41.3818 2.00066C41.4778 2.09922 41.5258 2.2237 41.5258 2.37413C41.5258 2.52195 41.4778 2.64514 41.3818 2.7437C41.2859 2.83966 41.1497 2.88764 40.9733 2.88764C40.8048 2.88764 40.6712 2.83966 40.5727 2.7437C40.4741 2.64774 40.4248 2.52455 40.4248 2.37413C40.4248 2.2237 40.4728 2.09922 40.5688 2.00066C40.6647 1.89952 40.7996 1.84895 40.9733 1.84895Z" fill="#858585"/>
</svg>
